<?xml version="1.0" standalone="no"?>
<!DOCTYPE svg PUBLIC "-//W3C//DTD SVG 20010904//EN"
 "http://www.w3.org/TR/2001/REC-SVG-20010904/DTD/svg10.dtd">
<svg version="1.0" xmlns="http://www.w3.org/2000/svg"
 width="1406.000000pt" height="1406.000000pt" viewBox="0 0 1406.000000 1406.000000"
 preserveAspectRatio="xMidYMid meet">

<g transform="translate(0.000000,1406.000000) scale(0.100000,-0.100000)"
fill="#000000" stroke="none">
<path d="M6715 14053 c-492 -29 -827 -74 -1227 -164 -1046 -235 -2013 -702
-2858 -1380 -382 -306 -773 -697 -1078 -1078 -898 -1120 -1413 -2420 -1534
-3876 -16 -195 -16 -855 0 -1050 103 -1236 481 -2340 1147 -3345 285 -431 563
-768 942 -1141 543 -535 1136 -957 1818 -1294 800 -395 1595 -616 2525 -702
261 -24 901 -24 1160 0 955 89 1761 317 2575 727 544 274 1061 624 1505 1018
133 119 440 424 564 562 963 1069 1574 2403 1750 3820 42 339 50 484 50 880 0
396 -8 541 -50 880 -110 883 -388 1737 -818 2514 -1252 2258 -3625 3652 -6186
3634 -129 -1 -257 -3 -285 -5z m620 -353 c572 -28 1093 -118 1627 -279 1924
-582 3501 -2023 4258 -3891 571 -1411 642 -2972 201 -4433 -581 -1922 -2024
-3501 -3891 -4257 -1462 -592 -3096 -645 -4590 -150 -1818 602 -3298 1964
-4053 3731 -242 565 -401 1155 -482 1782 -65 505 -65 1149 0 1654 100 775 314
1476 665 2172 280 556 601 1022 1031 1496 1326 1463 3271 2272 5234 2175z"/>
<path d="M6337 12840 c-125 -15 -229 -29 -231 -31 -5 -6 80 -718 86 -724 3 -3
118 8 257 25 138 16 253 30 255 30 3 0 -12 132 -16 135 -2 1 -81 -7 -176 -18
-137 -16 -175 -18 -182 -8 -8 14 -22 142 -15 149 4 4 294 41 329 42 17 0 18 6
11 68 -4 37 -8 68 -10 70 -1 1 -80 -7 -174 -19 -95 -11 -175 -19 -177 -17 -2
2 -6 36 -10 76 -8 84 -30 73 196 99 174 20 158 9 145 106 -7 56 23 54 -288 17z"/>
<path d="M7766 12829 c-3 -8 -34 -170 -69 -361 l-63 -347 55 -11 c31 -6 66
-13 77 -15 25 -6 23 -14 55 168 17 97 26 127 38 127 47 0 314 -56 318 -67 3
-7 -6 -75 -20 -150 -14 -76 -23 -140 -21 -142 5 -5 146 -32 150 -29 3 4 123
663 126 698 3 23 -1 25 -71 38 -40 7 -75 12 -76 10 -2 -2 -14 -61 -26 -130
-12 -70 -25 -132 -29 -138 -4 -6 -63 0 -170 20 -90 16 -165 31 -166 33 -2 2 7
62 21 133 14 71 25 134 25 140 0 6 -19 14 -42 18 -24 4 -58 9 -75 12 -23 4
-34 2 -37 -7z"/>
<path d="M5213 12593 l-181 -56 9 -26 c5 -14 54 -172 108 -350 55 -178 102
-325 103 -326 4 -4 132 36 140 43 4 4 -8 58 -27 121 -19 62 -35 117 -35 121 0
5 23 16 50 25 l50 17 106 -101 c58 -56 111 -101 117 -101 18 0 159 44 161 50
0 3 -51 53 -115 112 l-117 106 28 20 c94 70 90 253 -6 344 -80 75 -150 75
-391 1z m282 -125 c41 -49 25 -121 -32 -147 -31 -14 -176 -61 -179 -58 -11 11
-54 181 -47 186 4 4 28 14 53 21 147 44 167 44 205 -2z"/>
<path d="M8900 12239 c-129 -138 -250 -268 -267 -289 l-33 -38 81 -32 80 -33
49 48 49 48 83 -33 c46 -19 110 -46 144 -61 l60 -26 -4 -64 -4 -65 81 -33 c45
-19 83 -32 85 -30 2 2 6 180 10 395 l7 392 -91 36 c-49 20 -91 36 -93 36 -1 0
-108 -113 -237 -251z m264 -103 c-4 -86 -11 -156 -15 -156 -8 0 -190 70 -198
76 -2 2 45 57 105 123 59 66 109 119 111 117 2 -2 0 -73 -3 -160z"/>
<path d="M4483 12297 c-35 -17 -63 -36 -63 -42 0 -10 305 -643 314 -652 6 -6
136 61 136 70 0 13 -313 657 -319 656 -4 0 -34 -14 -68 -32z"/>
<path d="M9830 12094 c-20 -34 -29 -58 -23 -62 5 -4 44 -29 86 -55 43 -27 77
-53 77 -58 0 -5 -68 -117 -151 -250 -82 -133 -148 -247 -146 -253 3 -6 32 -28
65 -48 l59 -36 158 254 c97 156 162 251 169 247 6 -4 46 -29 89 -56 44 -26 81
-46 84 -44 2 3 19 29 38 58 30 48 32 54 17 65 -53 36 -474 294 -480 294 -4 0
-23 -25 -42 -56z"/>
<path d="M3884 11968 c-32 -23 -61 -43 -63 -45 -4 -3 38 -65 147 -222 12 -17
1 -27 -118 -110 -72 -51 -137 -94 -144 -97 -7 -3 -44 40 -91 108 -43 62 -79
114 -80 116 -4 5 -125 -82 -125 -90 0 -8 391 -571 410 -592 12 -12 132 74 126
90 -3 8 -42 65 -87 129 -45 64 -80 117 -78 119 2 1 66 46 141 99 l138 97 82
-117 c46 -64 86 -121 90 -127 7 -10 117 61 125 81 4 9 -365 548 -407 596 -3 4
-33 -12 -66 -35z"/>
<path d="M10501 11288 l-251 -273 58 -52 57 -53 106 112 107 112 63 -56 c35
-31 93 -83 128 -115 l64 -58 -99 -109 c-55 -59 -99 -113 -99 -120 0 -6 24 -33
53 -60 l53 -50 23 25 c122 129 471 513 471 518 0 3 -25 30 -56 59 l-56 52 -94
-104 c-52 -57 -96 -105 -99 -105 -8 -1 -250 220 -250 229 0 4 41 51 90 105 50
54 90 103 89 109 -1 6 -25 33 -54 59 l-53 48 -251 -273z"/>
<path d="M2973 11201 c-104 -38 -196 -121 -240 -218 -21 -45 -24 -66 -21 -118
5 -83 39 -134 116 -172 51 -25 58 -26 110 -15 31 7 88 31 127 53 184 109 198
114 228 81 61 -68 -57 -206 -199 -234 -33 -7 -60 -13 -62 -14 -8 -5 24 -137
34 -141 21 -8 132 25 182 54 65 38 154 130 185 194 49 97 30 209 -46 276 -88
77 -174 69 -339 -33 -123 -74 -151 -81 -180 -43 -18 24 -18 29 -5 60 8 19 27
46 43 61 34 31 115 73 162 83 28 6 33 11 29 28 -3 12 -9 43 -12 70 -7 43 -10
47 -34 47 -14 -1 -49 -9 -78 -19z"/>
<path d="M2280 10450 l-54 -82 63 -190 c35 -104 61 -191 59 -193 -2 -3 -61 34
-131 80 -70 47 -129 85 -131 85 -6 0 -86 -116 -86 -125 0 -6 582 -392 604
-401 7 -3 30 23 53 60 l41 65 -94 62 c-81 53 -96 67 -106 100 -6 22 -9 41 -7
43 2 2 85 9 184 15 99 7 180 13 181 14 0 1 24 37 53 80 29 42 46 77 39 77 -7
0 -118 -10 -246 -21 -128 -12 -235 -19 -238 -16 -3 3 -33 97 -65 209 -33 112
-61 207 -62 212 -2 5 -27 -29 -57 -74z"/>
<path d="M11338 10432 c-202 -54 -369 -100 -372 -102 -8 -8 92 -140 106 -140
7 0 35 7 62 15 26 8 52 12 57 9 10 -6 179 -240 179 -248 0 -3 -15 -29 -34 -58
l-34 -53 53 -73 52 -72 209 322 c115 177 210 327 212 335 4 15 -99 163 -113
162 -5 0 -175 -44 -377 -97z m296 -94 c-34 -58 -166 -248 -172 -248 -4 0 -17
15 -28 33 -12 17 -40 57 -63 88 l-40 56 137 41 c151 44 177 49 166 30z"/>
<path d="M4570 8716 l0 -1436 588 0 c615 0 756 7 887 40 205 52 377 188 463
364 92 188 106 432 37 623 -73 201 -249 378 -430 433 -22 6 -47 14 -55 16 -8
3 16 16 52 28 177 62 316 205 386 398 25 68 27 84 27 238 0 155 -2 170 -28
245 -70 199 -207 341 -400 416 -161 62 -160 62 -874 66 l-653 4 0 -1435z
m1210 1104 c127 -21 251 -99 314 -199 89 -140 90 -372 2 -509 -36 -55 -105
-118 -162 -146 -107 -53 -134 -56 -586 -56 l-418 0 0 460 0 460 393 0 c220 0
421 -5 457 -10z m44 -1245 c242 -51 396 -237 396 -476 0 -205 -92 -364 -257
-441 -108 -51 -176 -57 -625 -58 l-408 0 0 495 0 495 413 0 c323 0 427 -4 481
-15z"/>
<path d="M7220 8715 l0 -1435 178 2 177 3 3 658 2 657 780 0 780 0 0 -660 0
-660 175 0 175 0 0 1435 0 1435 -175 0 -175 0 -2 -617 -3 -618 -777 -3 -778
-2 -2 617 -3 618 -177 3 -178 2 0 -1435z"/>
<path d="M11920 9598 c-146 -121 -276 -228 -289 -239 l-24 -19 27 -63 c14 -34
30 -68 35 -76 8 -12 48 -8 258 26 136 22 249 40 250 38 3 -1 -361 -287 -390
-306 -16 -11 48 -154 70 -157 22 -3 731 93 738 100 4 4 -50 144 -59 155 -2 2
-119 -17 -261 -42 -141 -25 -259 -44 -261 -42 -2 2 90 77 205 168 l209 164
-25 54 c-13 30 -25 56 -26 57 -1 1 -114 -16 -252 -37 -137 -21 -256 -38 -263
-36 -7 1 82 74 198 162 116 87 209 162 208 165 -2 4 -16 39 -33 78 -16 40 -34
72 -40 71 -5 0 -129 -100 -275 -221z"/>
<path d="M1795 9486 c-57 -21 -116 -90 -154 -182 -19 -44 -53 -125 -76 -180
l-43 -102 340 -142 c187 -78 341 -140 342 -138 9 12 58 139 55 142 -2 2 -55
25 -116 51 -62 26 -113 52 -113 59 0 6 9 30 19 53 22 46 5 41 211 66 l104 12
34 78 c18 44 32 81 29 83 -2 2 -66 -5 -141 -16 -185 -27 -176 -28 -176 19 0
52 -12 81 -51 125 -63 72 -178 103 -264 72z m148 -186 c15 -17 27 -41 27 -55
0 -19 -63 -189 -75 -203 -1 -1 -41 14 -89 34 -83 35 -87 38 -81 63 14 56 80
176 105 189 36 18 81 7 113 -28z"/>
<path d="M1312 8269 c-29 -138 -51 -254 -48 -256 8 -8 707 -156 712 -151 9 10
111 499 104 503 -13 8 -130 32 -130 27 0 -9 -72 -347 -75 -350 -3 -3 -145 27
-155 33 -4 2 7 71 25 152 48 218 51 195 -24 210 -35 7 -66 12 -67 10 -2 -2
-19 -77 -39 -167 -20 -90 -38 -166 -40 -169 -9 -9 -145 22 -145 33 0 7 16 83
35 171 20 88 33 165 31 171 -2 6 -24 14 -48 18 -23 4 -52 9 -63 12 -19 4 -24
-13 -73 -247z"/>
<path d="M11985 8359 c4 -23 12 -62 19 -88 l11 -46 63 -8 c52 -7 63 -12 67
-30 12 -51 55 -271 55 -281 0 -6 -25 -26 -56 -45 -46 -27 -55 -37 -51 -55 3
-11 11 -49 18 -83 6 -35 15 -63 20 -63 8 0 637 395 652 409 11 11 -24 192 -38
197 -11 4 -748 134 -760 134 -4 0 -4 -19 0 -41z m494 -199 c68 -10 125 -20
126 -22 2 -2 -57 -41 -132 -86 -74 -46 -137 -81 -139 -79 -4 4 -44 193 -44
209 0 5 15 6 33 3 17 -3 88 -14 156 -25z"/>
<path d="M12661 7355 l-214 -145 -96 0 c-53 0 -120 -3 -148 -6 l-53 -7 0 -73
0 -74 152 0 151 0 141 -87 c78 -48 176 -108 219 -135 l77 -48 0 89 0 89 -142
84 c-79 46 -142 88 -142 93 1 5 59 46 129 91 71 46 132 87 137 92 5 5 8 48 6
96 l-3 86 -214 -145z"/>
<path d="M1293 7461 c-92 -42 -111 -114 -112 -417 l-1 -162 360 -7 c199 -4
364 -5 367 -1 3 3 8 106 11 229 4 208 3 226 -15 269 -12 25 -37 58 -59 74 -34
27 -44 29 -119 29 -73 0 -85 -3 -117 -27 -19 -15 -41 -41 -48 -58 l-13 -31
-23 40 c-45 74 -145 101 -231 62z m465 -167 c20 -23 22 -35 22 -145 l0 -119
-86 0 -86 0 3 119 c3 102 7 122 24 141 41 45 83 47 123 4z m-311 2 l28 -24 -3
-118 c-1 -65 -4 -119 -5 -121 -2 -1 -36 1 -76 4 l-73 6 4 114 c3 112 4 115 31
139 36 30 59 30 94 0z"/>
<path d="M8308 6809 c-510 -59 -852 -403 -824 -832 21 -317 190 -511 569 -651
54 -20 225 -72 380 -115 394 -110 511 -159 619 -259 200 -185 153 -508 -98
-668 -128 -82 -348 -124 -552 -104 -276 26 -511 133 -708 322 -44 43 -84 78
-87 78 -3 0 -30 -30 -59 -67 -30 -38 -78 -99 -107 -136 l-54 -69 74 -70 c186
-175 413 -290 684 -348 129 -28 420 -38 562 -20 426 53 711 262 806 592 41
140 42 331 1 468 -40 137 -142 275 -269 365 -142 101 -324 173 -699 276 -352
97 -493 155 -590 240 -177 156 -118 456 117 593 213 125 586 118 872 -18 116
-55 172 -92 256 -173 l65 -63 108 131 108 131 -48 49 c-109 111 -307 228 -477
283 -199 65 -439 89 -649 65z"/>
<path d="M4570 5340 l0 -1430 180 0 180 0 0 655 0 655 780 0 780 0 0 -655 0
-655 175 0 175 0 0 1430 0 1430 -175 0 -175 0 0 -615 0 -615 -780 0 -780 0 0
615 0 615 -180 0 -180 0 0 -1430z"/>
<path d="M1688 5720 c-81 -25 -148 -110 -148 -185 0 -132 124 -229 249 -195
43 11 104 57 123 94 49 91 9 223 -82 271 -34 18 -109 26 -142 15z"/>
<path d="M12273 5721 c-45 -11 -77 -34 -110 -78 -25 -33 -28 -44 -28 -114 0
-71 2 -80 31 -116 45 -55 86 -76 153 -77 100 0 167 51 193 148 13 51 2 115
-29 162 -36 56 -140 92 -210 75z"/>
<path d="M2445 4425 c-60 -41 -199 -132 -307 -202 l-197 -129 41 -62 c22 -34
44 -62 49 -62 5 0 64 36 131 80 94 61 126 76 134 67 6 -7 50 -71 97 -144 l86
-132 -127 -82 c-70 -45 -129 -83 -130 -85 -3 -2 59 -100 83 -132 3 -3 594 384
608 397 12 12 -71 134 -88 127 -8 -3 -62 -37 -121 -77 -58 -39 -110 -67 -114
-62 -14 15 -171 254 -176 268 -4 9 31 38 103 86 59 39 112 75 117 80 5 4 -9
36 -34 74 -23 36 -43 65 -44 64 0 0 -50 -33 -111 -74z"/>
<path d="M11481 4383 c-69 -34 -149 -115 -186 -189 -26 -52 -30 -70 -30 -144
0 -73 3 -90 23 -118 42 -58 88 -85 152 -90 79 -6 122 16 240 123 52 47 106 88
119 92 51 13 87 -40 70 -102 -16 -56 -118 -155 -186 -178 l-52 -19 20 -50 c34
-86 35 -88 69 -78 99 28 199 118 262 234 29 55 33 69 33 142 0 71 -3 85 -28
122 -37 56 -96 94 -156 100 -71 6 -137 -28 -254 -131 -102 -91 -130 -103 -160
-69 -49 53 25 172 139 224 34 16 49 28 46 38 -21 68 -46 120 -56 120 -7 0 -36
-12 -65 -27z"/>
<path d="M10792 3545 c-94 -101 -173 -188 -174 -193 -3 -9 518 -502 530 -502
11 0 352 367 352 378 0 5 -22 28 -49 50 l-49 42 -124 -131 -124 -131 -57 52
c-31 29 -57 55 -57 59 0 3 46 56 103 117 147 158 138 137 87 189 -24 25 -47
45 -51 45 -6 0 -102 -97 -201 -205 l-46 -50 -55 52 -55 52 123 133 124 133
-27 28 c-15 16 -39 37 -53 47 l-25 19 -172 -184z"/>
<path d="M3062 3530 c-111 -23 -224 -116 -279 -228 -23 -49 -27 -70 -28 -147
0 -78 4 -98 28 -149 125 -268 445 -329 635 -121 61 66 90 125 105 209 41 244
-215 487 -461 436z m183 -168 c99 -48 150 -155 121 -255 -28 -98 -126 -182
-224 -194 -100 -11 -205 65 -233 171 -24 88 34 208 127 262 75 44 142 49 209
16z"/>
<path d="M10254 3016 c-107 -27 -212 -116 -262 -224 -23 -49 -27 -70 -27 -152
0 -88 3 -101 33 -162 37 -76 113 -151 189 -189 41 -20 63 -24 148 -24 91 0
106 3 165 31 138 66 209 164 218 300 5 84 10 80 -83 61 l-60 -13 -6 -50 c-11
-85 -38 -124 -116 -163 -49 -25 -127 -28 -177 -7 -90 38 -159 140 -159 236 0
148 146 257 275 205 13 -5 23 6 47 54 17 33 31 65 31 70 0 27 -144 46 -216 27z"/>
<path d="M3893 2878 c-14 -24 -102 -161 -196 -306 -93 -145 -167 -265 -165
-267 14 -12 119 -75 126 -75 4 0 69 94 143 210 73 115 135 206 137 202 1 -4
-20 -120 -48 -257 -27 -137 -50 -256 -50 -265 0 -9 12 -23 28 -32 l27 -15 218
159 c121 88 220 158 222 156 2 -2 -57 -97 -131 -211 -74 -114 -134 -209 -134
-212 0 -6 118 -85 127 -85 4 0 97 139 205 308 l197 307 -87 57 c-48 31 -92 57
-97 58 -6 0 -96 -62 -200 -138 -105 -77 -191 -134 -193 -127 -1 6 18 110 43
230 25 120 45 222 45 227 0 9 -166 118 -180 118 -5 0 -22 -19 -37 -42z"/>
<path d="M9448 2506 c-32 -18 -60 -35 -63 -38 -4 -4 326 -631 341 -647 5 -5
134 69 134 77 -1 15 -337 636 -346 639 -5 1 -35 -12 -66 -31z"/>
<path d="M4930 2317 c-5 -12 -66 -166 -134 -342 -87 -224 -121 -322 -113 -326
7 -4 93 -38 192 -77 99 -39 203 -79 231 -90 l51 -21 26 65 c14 35 22 66 19 68
-4 2 -79 32 -167 66 -88 35 -161 64 -163 65 -4 3 48 139 56 146 4 4 75 -20
157 -52 83 -33 156 -60 163 -62 15 -2 66 113 55 124 -5 3 -64 28 -133 54 -69
27 -140 54 -157 62 l-33 13 25 67 c14 37 27 68 29 70 2 2 79 -26 172 -61 92
-36 168 -65 169 -63 17 25 46 120 39 127 -5 5 -90 40 -189 78 -99 39 -204 79
-233 91 l-52 21 -10 -23z"/>
<path d="M9013 2292 l-73 -27 -2 -294 -3 -295 -66 80 c-36 43 -120 145 -187
226 l-122 148 -73 -27 c-39 -14 -76 -29 -81 -34 -6 -5 367 -454 489 -587 9
-10 29 -6 102 19 l91 32 6 106 c3 58 9 235 12 394 5 240 4 287 -7 286 -8 0
-47 -12 -86 -27z"/>
<path d="M5868 2006 c-97 -26 -158 -105 -158 -205 0 -97 51 -152 212 -229 93
-44 148 -86 148 -113 0 -4 -11 -21 -24 -36 -21 -24 -31 -28 -79 -27 -71 0
-172 49 -220 105 l-34 39 -52 -46 c-28 -25 -51 -52 -51 -59 0 -18 91 -100 140
-125 242 -124 480 -38 480 173 0 89 -61 155 -207 224 -99 47 -153 86 -153 109
0 8 12 27 26 41 23 23 31 25 74 20 60 -7 124 -38 171 -84 42 -40 51 -38 111
24 l38 39 -28 32 c-40 47 -135 99 -212 116 -81 19 -118 19 -182 2z"/>
<path d="M7742 1950 c-90 -15 -166 -30 -169 -34 -5 -4 104 -717 110 -723 3 -2
147 24 151 28 1 2 -6 59 -17 127 -11 68 -18 125 -15 127 2 2 29 7 59 10 l54 5
88 -115 c53 -70 95 -115 105 -114 35 1 153 24 155 30 1 4 -42 60 -97 125 l-98
119 23 15 c37 23 70 62 85 97 17 39 18 123 3 177 -15 54 -80 121 -136 140 -61
21 -107 19 -301 -14z m261 -150 c15 -17 27 -42 27 -56 0 -38 -26 -80 -57 -92
-38 -15 -193 -41 -198 -33 -7 13 -28 181 -23 187 10 10 163 32 193 28 17 -2
42 -17 58 -34z"/>
<path d="M6670 1828 c0 -46 -5 -211 -10 -367 -6 -156 -10 -285 -8 -286 2 -2
118 -6 260 -10 l256 -8 4 67 c2 48 -1 67 -10 71 -8 3 -66 5 -130 5 -64 0 -141
3 -169 6 l-53 7 0 41 c0 23 3 58 7 80 l6 38 173 -4 172 -3 7 63 c4 35 5 65 3
67 -2 3 -84 7 -182 11 l-178 7 4 74 c3 40 7 74 9 76 2 1 84 0 182 -3 l177 -5
0 67 0 66 -72 6 c-40 3 -157 8 -260 11 l-188 7 0 -84z"/>
</g>
</svg>
