<?xml version="1.0" standalone="no"?>
<!DOCTYPE svg PUBLIC "-//W3C//DTD SVG 20010904//EN"
 "http://www.w3.org/TR/2001/REC-SVG-20010904/DTD/svg10.dtd">
<svg version="1.0" xmlns="http://www.w3.org/2000/svg"
 width="1400.000000pt" height="800.000000pt" viewBox="0 0 1400.000000 800.000000"
 preserveAspectRatio="xMidYMid meet">

<g transform="translate(0.000000,800.000000) scale(0.100000,-0.100000)"
fill="#000000" stroke="none">
<path d="M6878 6281 c-49 -19 -160 -90 -216 -138 -33 -28 -33 -29 -37 -128 -2
-55 -15 -203 -29 -330 -44 -396 -49 -473 -48 -740 1 -593 61 -853 214 -929
128 -64 235 -8 364 189 66 102 126 227 169 353 l32 93 6 -218 c8 -300 28 -385
97 -426 75 -45 161 -10 285 116 162 164 325 417 505 782 125 253 197 426 269
650 89 273 130 540 89 581 -45 46 -184 -2 -280 -98 l-57 -57 0 -78 c0 -181
-185 -743 -371 -1128 -68 -142 -110 -205 -136 -205 -67 0 -73 304 -13 665 11
66 42 233 69 371 56 284 61 351 29 380 -48 43 -196 4 -314 -83 -38 -28 -41
-33 -37 -70 10 -106 -142 -629 -282 -971 -97 -237 -158 -335 -205 -330 -54 6
-71 102 -71 403 0 259 16 455 70 867 22 166 40 336 40 379 0 72 -2 79 -26 98
-32 25 -55 26 -116 2z"/>
<path d="M1434 6236 c-64 -24 -149 -69 -159 -86 -3 -5 -8 -42 -10 -82 -5 -90
-35 -211 -170 -688 -200 -703 -256 -953 -258 -1150 -2 -99 1 -121 19 -154 33
-65 77 -81 214 -81 138 1 213 19 550 130 124 41 242 75 263 75 l37 0 0 69 c0
54 -5 75 -23 102 -48 73 -118 83 -337 50 -257 -39 -290 -37 -311 16 -19 49 41
294 211 863 149 498 199 704 203 838 2 70 0 75 -26 98 -37 32 -118 32 -203 0z"/>
<path d="M5872 5979 c-29 -12 -85 -42 -124 -69 l-71 -47 -17 -84 c-10 -46 -52
-198 -94 -336 -43 -139 -95 -324 -117 -410 -43 -173 -96 -295 -189 -437 -85
-131 -186 -214 -211 -175 -12 20 -11 93 6 254 17 165 19 355 4 408 -15 54 -44
70 -103 57 -50 -11 -159 -62 -188 -88 -10 -8 -18 -25 -18 -36 0 -12 -15 -47
-33 -79 -32 -59 -238 -339 -244 -333 -2 2 8 92 22 200 26 204 32 347 15 390
-5 14 -20 32 -33 41 -22 14 -32 14 -95 1 -39 -8 -101 -30 -138 -48 -65 -33
-68 -36 -94 -99 -15 -36 -57 -113 -94 -170 -74 -113 -236 -332 -241 -327 -2 2
3 66 11 143 9 77 16 201 17 275 3 197 -13 213 -166 174 -34 -8 -91 -30 -127
-48 -56 -28 -65 -36 -62 -58 2 -13 -9 -61 -23 -106 -79 -251 -287 -582 -365
-582 -48 0 -56 47 -36 208 24 199 22 234 -15 276 -35 40 -107 70 -191 80 l-58
6 0 -36 c0 -44 -49 -192 -91 -276 -77 -154 -181 -280 -240 -293 -80 -18 -95
89 -37 262 73 221 237 416 361 430 24 3 53 0 64 -6 18 -9 22 -7 27 12 16 61
-3 139 -47 185 -46 50 -106 65 -197 51 -293 -44 -561 -424 -611 -864 -18 -161
10 -293 77 -359 56 -55 100 -71 199 -71 85 0 94 2 160 38 83 44 188 145 238
229 l34 58 -1 -108 c-1 -90 2 -113 20 -147 30 -58 72 -77 160 -72 161 9 341
153 498 400 l58 92 -6 -70 c-3 -38 -9 -138 -13 -222 -5 -132 -4 -155 11 -177
14 -22 24 -26 64 -26 58 0 169 26 199 46 13 8 23 23 23 34 0 35 68 157 174
314 134 197 189 276 191 273 1 -1 -11 -87 -26 -192 -39 -259 -48 -415 -25
-449 13 -21 25 -26 56 -26 93 0 240 49 240 80 0 25 70 129 189 280 59 74 120
153 135 175 l28 40 -6 -40 c-31 -219 -27 -393 12 -458 43 -74 132 -96 234 -57
115 43 267 178 370 329 l55 81 13 -76 c40 -251 154 -365 354 -352 106 7 201
55 309 158 205 194 317 469 321 785 1 102 -2 127 -20 165 -76 165 -268 191
-435 59 -43 -34 -49 -49 -20 -49 27 0 69 -37 92 -81 51 -101 41 -325 -22 -496
-51 -137 -131 -214 -189 -182 -44 25 -54 62 -58 210 -6 207 25 351 198 924 84
280 120 418 120 463 0 52 -76 66 -168 31z"/>
<path d="M10725 5946 c-94 -30 -242 -124 -249 -159 -42 -201 -187 -719 -223
-795 -54 -115 -314 -472 -343 -472 -6 0 -10 21 -10 48 0 64 -27 289 -46 387
-34 173 -73 269 -127 309 -25 18 -32 19 -94 9 -36 -7 -96 -27 -132 -45 -65
-33 -65 -33 -78 -91 -40 -184 -322 -605 -507 -758 -112 -92 -231 -139 -283
-110 -23 12 -50 63 -55 105 -3 26 0 29 54 46 193 60 389 256 448 448 89 288
-120 463 -395 332 -174 -83 -349 -311 -431 -560 -25 -77 -28 -99 -28 -230 -1
-161 10 -210 65 -293 53 -81 154 -127 279 -127 228 0 480 168 704 468 80 106
179 270 211 349 26 64 28 62 45 -42 19 -116 15 -289 -10 -367 -41 -135 -132
-208 -257 -208 -61 0 -63 -1 -63 -25 0 -92 128 -175 268 -175 116 0 237 49
361 145 69 53 220 208 286 293 26 34 49 61 51 59 2 -1 -2 -34 -7 -72 -6 -39
-11 -118 -11 -176 -1 -94 1 -112 23 -155 36 -73 65 -89 157 -89 70 0 84 4 149
38 83 45 204 154 283 255 l55 71 20 -77 c52 -195 159 -292 319 -292 168 0 325
95 433 262 50 78 96 188 113 273 6 33 14 69 16 80 2 12 31 35 74 59 38 22 106
68 151 103 50 40 79 58 75 46 -3 -10 -12 -56 -21 -102 -8 -47 -38 -186 -66
-310 -60 -268 -69 -349 -45 -386 12 -18 25 -25 49 -25 98 0 297 98 297 146 0
61 242 427 354 533 57 55 60 44 68 -217 7 -251 21 -330 73 -398 91 -120 308
-63 451 118 78 99 124 227 94 263 -11 13 -19 10 -60 -29 -79 -74 -140 -95
-173 -58 -27 29 -38 108 -47 337 -13 298 -31 385 -88 406 -31 12 -130 -2 -225
-31 -59 -18 -70 -26 -99 -68 -18 -26 -64 -83 -103 -127 -58 -66 -93 -107 -170
-202 -1 -2 13 48 31 110 46 160 64 255 64 336 0 122 -25 146 -137 132 -38 -5
-96 -16 -131 -26 -55 -16 -65 -22 -82 -55 -40 -79 -331 -310 -351 -279 -5 8
-9 21 -9 29 0 30 -60 118 -93 139 -43 26 -102 27 -144 1 -98 -60 -143 -263
-83 -380 23 -45 55 -69 103 -79 30 -6 32 -9 28 -41 -17 -176 -204 -342 -286
-254 -37 40 -49 110 -42 253 13 292 134 551 270 578 25 5 28 9 22 32 -9 35
-22 49 -66 72 -155 79 -340 -65 -504 -393 -113 -225 -269 -436 -346 -468 -28
-12 -33 -12 -45 5 -8 10 -14 26 -14 34 0 78 81 421 193 821 l44 155 119 3 c65
2 145 -2 178 -8 l59 -11 34 33 c65 62 103 150 83 189 -20 36 -53 40 -232 28
-93 -6 -172 -9 -174 -6 -3 3 4 50 15 106 42 201 20 260 -84 227z m-1841 -1018
c-3 -92 -158 -276 -268 -318 l-28 -10 6 37 c26 142 180 339 261 331 28 -3 30
-6 29 -40z"/>
</g>
</svg>
