<?xml version="1.0" standalone="no"?>
<!DOCTYPE svg PUBLIC "-//W3C//DTD SVG 20010904//EN"
 "http://www.w3.org/TR/2001/REC-SVG-20010904/DTD/svg10.dtd">
<svg version="1.0" xmlns="http://www.w3.org/2000/svg"
 width="3840.000000pt" height="2160.000000pt" viewBox="0 0 3840.000000 2160.000000"
 preserveAspectRatio="xMidYMid meet">

<g transform="translate(0.000000,2160.000000) scale(0.100000,-0.100000)"
fill="#000000" stroke="none">
<path d="M2543 21334 c-20 -9 -18 -140 2 -148 8 -3 147 -6 308 -7 549 -3 820
-42 1043 -150 267 -130 393 -358 439 -791 13 -131 15 -1162 15 -9471 0 -8257
-2 -9337 -15 -9445 -68 -551 -269 -771 -795 -870 -30 -6 -89 -14 -130 -18 -41
-3 -84 -8 -95 -11 -11 -2 -186 -6 -390 -9 -203 -3 -376 -7 -382 -9 -9 -3 -13
-28 -13 -80 l0 -75 2875 0 2876 0 -3 78 -3 77 -555 6 c-541 6 -610 10 -800 44
-214 38 -394 121 -508 233 -126 124 -199 287 -237 532 -35 222 -36 355 -33
4795 l3 4370 925 -2 c890 -1 1149 -8 1440 -39 25 -2 90 -9 145 -15 163 -16
342 -42 525 -75 462 -84 860 -196 1245 -351 187 -75 486 -220 616 -298 51 -30
93 -55 95 -55 7 0 181 -115 264 -174 637 -454 1153 -1067 1709 -2029 50 -87
91 -160 91 -162 0 -3 13 -26 29 -52 79 -131 681 -1331 681 -1359 0 -1 34 -73
75 -159 41 -87 75 -159 75 -160 0 -2 31 -68 68 -147 38 -78 77 -161 87 -183
21 -45 119 -253 216 -456 265 -555 565 -1131 799 -1534 219 -378 505 -799 743
-1095 465 -578 996 -1036 1507 -1299 47 -24 112 -58 145 -75 118 -62 400 -173
570 -225 94 -29 414 -106 495 -119 156 -26 232 -36 435 -58 33 -4 1130 -9
2438 -11 l2377 -3 0 80 0 80 -392 0 c-509 0 -695 9 -898 41 -445 71 -673 267
-760 654 -23 99 -40 243 -50 402 -6 113 -10 1674 -10 4522 0 3956 1 4349 16
4355 21 8 10307 8 10328 0 15 -6 16 -399 16 -4363 0 -4255 -2 -4537 -31 -4761
-66 -505 -285 -727 -799 -809 -165 -26 -269 -32 -653 -38 -283 -4 -414 -9
-420 -17 -4 -6 -6 -40 -5 -76 l3 -65 2783 -3 2782 -2 0 80 0 80 -277 0 c-422
1 -631 12 -828 46 -520 88 -730 339 -785 938 -7 73 -10 3226 -10 9405 1 9729
-1 9390 39 9616 54 303 190 505 415 614 232 112 452 141 1111 147 171 1 316 3
323 3 10 1 12 21 10 79 l-3 77 -2774 3 c-2213 2 -2776 0 -2783 -10 -13 -21
-10 -138 5 -143 6 -2 197 -6 422 -9 417 -6 472 -8 605 -27 284 -39 443 -104
578 -233 136 -130 208 -296 260 -606 15 -86 16 -539 19 -4924 2 -2934 0 -4832
-6 -4835 -5 -3 -2333 -6 -5173 -6 l-5163 0 -3 4740 c-3 4827 -3 4895 33 5100
84 477 315 685 845 759 169 24 291 29 715 32 220 1 408 3 418 3 16 1 18 10 15
79 l-3 77 -2800 0 -2800 0 0 -75 0 -75 385 -6 c567 -10 735 -33 944 -129 235
-109 375 -325 435 -675 37 -214 36 39 36 -10110 l0 -9840 -125 -3 c-132 -4
-320 10 -457 33 -626 107 -1040 441 -1428 1155 -44 81 -219 434 -263 530 -11
25 -39 86 -62 135 -23 50 -55 117 -70 150 -15 33 -44 96 -65 140 -20 44 -47
105 -60 135 -22 52 -46 104 -131 288 -20 42 -47 102 -61 132 -14 30 -52 111
-84 179 -33 68 -59 125 -59 126 0 2 -31 69 -70 150 -38 81 -70 148 -70 150 0
2 -35 77 -78 166 -44 90 -94 196 -112 234 -70 149 -541 1096 -597 1200 -33 61
-86 160 -118 220 -32 61 -69 127 -82 147 -13 21 -23 39 -23 42 0 2 -46 84
-101 182 -426 752 -840 1351 -1303 1884 -157 181 -605 622 -781 769 -300 250
-621 479 -895 640 -69 41 -139 82 -157 93 -91 54 -591 308 -607 308 -3 0 -33
13 -68 29 -295 135 -819 319 -1238 435 -289 79 -680 168 -955 217 -33 6 -78
14 -100 19 -34 7 -246 40 -364 57 -92 13 19 18 402 19 391 1 696 8 842 19 33
3 125 10 205 15 80 6 188 15 240 20 52 6 138 15 190 21 141 15 276 33 520 69
113 17 427 75 535 100 184 41 424 99 500 121 39 11 86 24 105 29 171 48 550
174 729 244 1265 494 2207 1257 2773 2246 401 702 607 1471 649 2428 33 734
-77 1513 -297 2098 -19 51 -34 95 -34 98 0 3 -9 26 -20 51 -11 25 -29 65 -40
90 -11 25 -20 47 -20 51 0 10 -166 339 -193 381 -15 24 -27 45 -27 47 0 10
-105 175 -177 279 -279 402 -625 758 -1048 1077 -308 231 -726 477 -1090 640
-27 12 -75 33 -105 47 -30 14 -77 34 -105 45 -27 11 -66 26 -85 35 -19 8 -44
18 -55 23 -11 4 -31 12 -45 18 -42 17 -111 43 -200 74 -47 16 -107 38 -135 48
-27 10 -97 33 -155 50 -58 18 -125 39 -150 47 -25 8 -69 21 -97 29 -29 8 -79
21 -110 30 -120 33 -253 66 -398 99 -236 54 -459 96 -735 140 -134 21 -357 51
-475 64 -221 25 -276 30 -410 40 -77 6 -198 16 -270 23 -98 9 -1115 13 -4130
14 -2200 2 -4006 0 -4012 -2z m7112 -168 c581 -25 1098 -87 1570 -186 173 -37
408 -95 520 -129 17 -5 77 -24 135 -41 225 -68 417 -140 700 -261 110 -48 369
-179 481 -245 63 -36 128 -74 145 -84 163 -94 435 -294 634 -466 107 -93 368
-356 451 -454 577 -688 911 -1457 1059 -2445 54 -359 79 -854 61 -1216 -7
-134 -16 -280 -22 -324 -26 -215 -31 -257 -45 -345 -22 -137 -69 -356 -104
-490 -65 -245 -179 -577 -253 -740 -13 -30 -41 -93 -62 -140 -43 -99 -160
-326 -235 -455 -331 -572 -730 -1039 -1224 -1433 -533 -425 -1162 -753 -1806
-942 -41 -12 -86 -26 -100 -31 -36 -12 -294 -74 -370 -88 -36 -7 -85 -16 -110
-21 -203 -39 -469 -68 -710 -78 -91 -4 -1078 -7 -2195 -7 l-2030 0 -3 4755
c-2 3492 0 4791 8 4890 20 237 55 390 123 530 34 70 56 101 131 175 74 74 107
98 176 132 121 58 230 90 410 118 151 25 455 31 1450 29 580 0 1127 -4 1215
-8z"/>
</g>
</svg>
