<?xml version="1.0" standalone="no"?>
<!DOCTYPE svg PUBLIC "-//W3C//DTD SVG 20010904//EN"
 "http://www.w3.org/TR/2001/REC-SVG-20010904/DTD/svg10.dtd">
<svg version="1.0" xmlns="http://www.w3.org/2000/svg"
 width="880.000000pt" height="283.000000pt" viewBox="0 0 880.000000 283.000000"
 preserveAspectRatio="xMidYMid meet">

<g transform="translate(0.000000,283.000000) scale(0.100000,-0.100000)"
fill="#000000" stroke="none">
<path d="M8297 2820 c-150 -38 -260 -164 -261 -299 0 -97 20 -155 76 -217 55
-60 121 -96 292 -159 124 -46 163 -72 201 -132 26 -42 30 -57 30 -123 0 -62
-4 -82 -24 -114 -32 -51 -105 -86 -182 -86 -136 0 -241 72 -309 214 -21 44
-42 93 -45 109 -6 23 -12 27 -43 27 l-35 0 6 -107 c4 -58 7 -148 7 -200 l0
-93 35 0 c28 0 37 5 50 30 l15 29 53 -24 c121 -57 288 -69 397 -31 156 56 249
195 238 356 -11 154 -88 228 -334 323 -216 83 -274 138 -274 259 0 171 212
237 358 112 45 -38 102 -142 123 -223 12 -48 14 -51 46 -51 l33 0 0 190 0 190
-35 0 c-25 0 -39 -6 -50 -24 l-16 -24 -81 35 c-88 38 -197 51 -271 33z"/>
<path d="M5648 2702 c-25 -64 -85 -216 -131 -337 -118 -305 -206 -523 -228
-567 -23 -45 -62 -73 -122 -89 -42 -10 -47 -14 -47 -40 l0 -29 220 0 220 0 0
29 c0 28 -3 29 -61 40 -34 6 -73 18 -87 27 -22 15 -24 20 -18 66 4 27 22 91
39 141 l33 92 209 0 208 0 49 -130 c26 -71 48 -140 48 -152 0 -23 -26 -35
-102 -49 -34 -5 -38 -10 -38 -35 l0 -29 240 0 240 0 0 29 c0 27 -4 30 -50 41
-73 18 -102 53 -156 194 -26 67 -67 173 -91 236 -25 63 -62 160 -84 215 -67
173 -166 429 -172 448 -4 11 -17 17 -39 17 -33 0 -33 -1 -80 -118z m126 -387
l74 -190 -90 -3 c-49 -1 -126 -1 -172 0 l-83 3 83 215 c46 118 84 217 84 220
2 10 31 -59 104 -245z"/>
<path d="M0 2770 c0 -25 4 -30 25 -30 32 0 73 -21 102 -52 22 -23 37 -73 178
-573 31 -110 69 -245 85 -300 16 -55 34 -119 40 -142 10 -41 12 -43 49 -43
l39 0 25 78 c14 42 75 223 137 402 62 179 117 342 122 363 6 20 13 37 17 37 3
0 28 -66 54 -147 27 -82 92 -280 145 -440 l96 -293 37 0 c46 0 27 -48 179 450
192 626 180 595 227 625 15 10 46 24 68 30 32 10 41 17 43 39 l3 26 -216 0
-216 0 3 -27 c3 -25 8 -29 54 -34 85 -11 120 -42 109 -96 -23 -103 -191 -721
-200 -731 -2 -2 -67 190 -145 425 -79 235 -145 434 -147 441 -3 6 -22 12 -43
12 l-37 0 -26 -72 c-14 -40 -78 -232 -143 -425 -65 -194 -121 -353 -124 -353
-5 0 -137 452 -192 660 -33 125 -30 131 62 138 58 4 60 5 60 33 l0 29 -235 0
-235 0 0 -30z"/>
<path d="M1740 2770 c0 -27 3 -30 33 -31 50 0 120 -31 134 -59 17 -33 19 -871
2 -918 -12 -34 -39 -48 -116 -57 -50 -7 -53 -8 -53 -36 l0 -29 260 0 260 0 0
30 c0 26 -4 30 -37 35 -67 12 -103 26 -118 48 -23 32 -22 912 0 944 17 24 71
43 123 43 29 0 32 3 32 30 l0 30 -260 0 -260 0 0 -30z"/>
<path d="M2410 2772 c0 -25 5 -28 52 -40 28 -6 62 -22 75 -34 l23 -21 0 -459
0 -459 -23 -23 c-15 -15 -41 -25 -75 -30 -49 -6 -52 -8 -52 -36 l0 -30 454 0
453 0 7 113 c4 61 9 140 12 175 l6 62 -28 0 c-25 0 -32 -8 -53 -51 -13 -29
-46 -84 -71 -124 -63 -95 -75 -100 -263 -100 -144 0 -149 1 -168 24 -18 22
-19 43 -17 489 l3 465 27 20 c15 11 49 22 77 25 48 4 51 6 51 33 l0 29 -245 0
-245 0 0 -28z"/>
<path d="M3442 2773 c2 -23 10 -29 41 -35 56 -12 97 -36 107 -64 13 -34 13
-885 0 -918 -11 -30 -36 -42 -102 -51 -45 -6 -48 -8 -48 -36 l0 -29 454 0 455
0 6 53 c10 87 22 281 18 290 -2 4 -14 7 -27 7 -18 0 -29 -13 -53 -59 -17 -33
-50 -89 -74 -125 -56 -86 -84 -96 -260 -96 -121 0 -129 1 -156 24 l-28 24 -3
439 c-2 282 0 450 7 473 13 43 38 59 102 67 46 5 49 8 49 34 l0 29 -246 0
-245 0 3 -27z"/>
<path d="M4472 2773 c3 -24 9 -29 44 -34 67 -12 113 -36 124 -64 11 -29 14
-851 4 -904 -8 -39 -38 -56 -116 -65 -56 -7 -58 -9 -58 -37 l0 -29 260 0 260
0 0 29 c0 27 -3 29 -61 40 -40 8 -70 21 -85 36 l-24 24 0 453 c0 391 2 457 15
475 17 24 71 43 123 43 29 0 32 3 32 30 l0 30 -261 0 -260 0 3 -27z"/>
<path d="M6430 2770 c0 -25 4 -30 25 -30 42 0 104 -31 128 -64 22 -31 22 -32
22 -451 l0 -420 -23 -37 c-23 -37 -48 -50 -124 -63 -34 -5 -38 -9 -38 -35 l0
-30 235 0 235 0 0 30 c0 24 -5 31 -27 36 -107 23 -137 45 -158 118 -12 40 -15
125 -15 450 0 223 4 396 9 390 4 -5 47 -115 95 -244 48 -129 107 -287 131
-350 24 -63 68 -180 98 -260 43 -115 58 -146 74 -148 24 -4 11 -34 244 550 96
241 177 438 182 438 4 0 7 -198 7 -441 l0 -441 -28 -27 c-22 -22 -40 -29 -90
-35 -60 -7 -62 -8 -62 -36 l0 -30 255 0 255 0 0 30 c0 26 -4 30 -37 35 -21 4
-51 11 -66 17 -58 22 -57 12 -57 501 0 302 4 455 11 469 13 25 68 48 114 48
32 0 35 2 35 30 l0 30 -189 0 -189 0 -11 -47 c-11 -43 -39 -119 -146 -393 -39
-100 -143 -364 -157 -400 -9 -23 -12 -19 -44 60 -19 47 -48 121 -64 165 -16
44 -54 143 -83 220 -30 77 -76 197 -103 268 l-48 127 -198 0 -198 0 0 -30z"/>
<path d="M1325 1206 c-158 -40 -252 -142 -263 -286 -13 -182 76 -280 337 -376
150 -55 199 -87 233 -153 36 -68 38 -153 7 -217 -16 -34 -32 -49 -74 -70 -48
-23 -64 -26 -132 -23 -151 8 -249 91 -313 267 -26 72 -30 77 -59 80 l-31 3 0
-139 c0 -76 3 -167 6 -201 7 -61 7 -61 39 -61 24 0 35 6 45 26 16 28 12 28
115 -12 63 -26 82 -28 195 -28 114 0 130 2 180 25 154 73 235 218 210 373 -24
146 -109 214 -405 327 -68 25 -102 45 -137 79 -99 96 -87 237 27 302 32 18 54
23 107 22 136 -2 223 -90 284 -286 16 -52 20 -58 45 -58 15 0 30 4 33 8 3 5 2
93 -1 195 l-6 187 -34 0 c-18 0 -33 -3 -33 -7 0 -5 -7 -16 -15 -27 -13 -17
-16 -17 -67 8 -64 31 -160 56 -208 55 -19 0 -57 -6 -85 -13z"/>
<path d="M2364 1200 c-107 -28 -171 -65 -251 -145 -127 -127 -180 -276 -170
-480 6 -121 27 -200 79 -296 101 -190 332 -303 552 -270 242 36 415 205 467
456 23 110 23 156 4 271 -23 130 -77 238 -163 323 -79 78 -142 114 -248 141
-95 25 -177 25 -270 0z m270 -84 c129 -58 207 -216 222 -451 11 -186 -28 -358
-106 -461 -50 -67 -102 -100 -186 -121 -147 -36 -288 36 -361 187 -51 106 -66
197 -60 368 6 193 38 306 114 396 92 109 242 142 377 82z"/>
<path d="M4745 1209 c-113 -25 -230 -92 -301 -172 -53 -60 -117 -189 -133
-265 -16 -78 -14 -267 4 -337 41 -163 156 -312 288 -374 166 -79 331 -79 492
0 203 99 315 295 315 549 0 221 -94 415 -248 514 -78 49 -104 60 -192 81 -71
16 -163 18 -225 4z m222 -84 c99 -41 163 -116 210 -245 26 -72 27 -84 27 -270
1 -187 0 -198 -26 -269 -15 -41 -43 -98 -63 -127 -96 -140 -276 -181 -422 -98
-80 46 -144 144 -179 274 -25 93 -25 339 0 435 57 219 187 334 358 320 32 -3
75 -12 95 -20z"/>
<path d="M7497 1173 c-9 -21 -35 -87 -58 -148 -141 -369 -318 -816 -337 -848
-22 -37 -78 -74 -124 -82 -34 -6 -38 -11 -38 -36 l0 -29 215 0 215 0 0 29 c0
26 -4 29 -46 35 -25 3 -61 13 -80 22 -31 15 -34 20 -33 58 0 22 17 88 37 146
l37 105 206 3 c190 2 207 1 214 -15 33 -84 95 -263 95 -275 0 -19 -42 -38
-102 -45 -45 -5 -48 -8 -48 -35 l0 -28 242 2 c213 3 241 5 243 19 4 25 -6 34
-55 48 -77 23 -98 55 -182 276 -42 110 -127 328 -188 485 -61 157 -116 300
-122 318 -10 27 -16 32 -43 32 -27 0 -34 -5 -48 -37z m79 -434 c40 -103 76
-198 80 -213 l6 -26 -171 0 c-94 0 -171 3 -171 6 0 9 133 359 162 424 8 18 12
21 16 10 3 -8 38 -99 78 -201z"/>
<path d="M3050 1163 c0 -25 6 -30 59 -45 73 -22 115 -56 136 -111 14 -37 16
-91 13 -427 -3 -341 -5 -389 -20 -416 -18 -33 -63 -57 -131 -69 -33 -6 -37
-11 -37 -36 l0 -29 240 0 240 0 0 29 c0 26 -4 29 -42 35 -24 4 -63 17 -88 30
-73 37 -74 43 -78 471 l-2 370 24 -30 c13 -16 88 -118 168 -225 79 -107 227
-306 328 -442 l183 -248 38 0 38 0 3 507 c2 409 6 513 17 535 14 28 60 51 124
63 33 6 37 11 37 36 l0 29 -235 0 -235 0 0 -28 c0 -25 5 -29 56 -41 31 -7 68
-18 81 -24 61 -28 74 -119 71 -496 l-3 -293 -154 208 c-85 115 -231 314 -325
441 l-171 233 -167 0 -168 0 0 -27z"/>
<path d="M5430 1161 c0 -26 4 -29 42 -35 63 -10 104 -40 123 -89 14 -38 16
-92 13 -443 -3 -359 -5 -402 -21 -431 -21 -39 -60 -61 -122 -70 -41 -5 -45 -8
-45 -34 l0 -29 235 0 235 0 0 29 c0 25 -4 30 -37 36 -73 13 -118 40 -139 81
-18 36 -19 68 -22 464 -2 248 1 421 6 415 5 -5 23 -48 40 -95 38 -102 285
-760 317 -845 19 -49 27 -60 45 -60 20 0 33 26 110 220 203 508 302 751 311
759 5 6 9 -158 9 -432 l0 -442 -28 -31 c-23 -26 -36 -31 -90 -36 -60 -6 -62
-7 -62 -34 l0 -29 255 0 255 0 0 29 c0 27 -3 29 -50 35 -31 4 -60 16 -77 30
l-28 24 0 467 0 467 23 18 c12 10 47 22 77 25 52 7 55 9 55 36 l0 29 -190 0
c-154 0 -190 -3 -190 -14 0 -24 -36 -125 -125 -351 -48 -121 -110 -282 -138
-357 -29 -76 -55 -138 -58 -138 -5 0 -193 482 -292 753 l-40 107 -198 0 -199
0 0 -29z"/>
</g>
</svg>
